<svg width="167" height="48" viewBox="0 0 167 48" fill="none" xmlns="http://www.w3.org/2000/svg">
<path fill-rule="evenodd" clip-rule="evenodd" d="M25.5134 0.732061C23.4413 1.13061 20.3459 1.71156 18.6348 2.02311C14.1267 2.84393 13.8398 2.89884 13.8398 2.9407C13.8398 2.97753 16.217 6.94056 16.2714 6.9944C16.2863 7.00914 16.4196 6.9744 16.5676 6.91723C17.402 6.59466 17.8081 6.47394 18.3209 6.39587C19.945 6.14867 22.6107 6.63455 25.2566 7.65998C26.1798 8.01785 27.7703 8.82804 28.6961 9.41228C31.3145 11.0645 32.5889 12.3934 33.2203 14.1301C33.3709 14.5444 33.432 14.6508 33.5149 14.6427C33.5723 14.6371 34.1555 14.5405 34.8107 14.4281C35.4659 14.3158 36.0114 14.2332 36.0229 14.2446C36.0617 14.2829 34.5335 17.7306 34.3617 17.9924C34.3173 18.06 34.1731 18.1393 34.0294 18.1751C33.8614 18.217 33.7169 18.3044 33.6025 18.4332C33.413 18.647 33.3897 18.7052 33.3351 19.1026C33.3026 19.3391 33.2115 19.4801 32.5865 20.2607C31.0867 22.1338 31.0754 22.1527 31.2932 22.4155C31.3481 22.4817 31.9325 22.7806 32.5919 23.0795C33.486 23.485 33.854 23.6246 34.0401 23.629C34.4578 23.639 34.4731 23.5947 34.6992 21.7243C34.8392 20.5664 34.9224 20.0606 34.9874 19.9731C35.0377 19.9055 35.14 19.7669 35.2148 19.6652C35.4019 19.4109 35.4443 19.1088 35.336 18.8011C35.2875 18.6634 35.2476 18.4895 35.2471 18.4144C35.246 18.2284 37.0558 14.168 37.1921 14.0508C37.2521 13.9992 37.481 13.927 37.7008 13.8903C37.9207 13.8536 38.1005 13.8045 38.1005 13.7811C38.1005 13.7577 37.485 12.7188 36.7328 11.4722C31.2905 2.45278 29.9125 0.179182 29.8358 0.0922983C29.7768 0.0254127 29.6729 -0.00430164 29.5147 0.000500111C29.3862 0.00434151 27.5856 0.333572 25.5134 0.732061ZM17.9823 7.1659C17.3337 7.30515 16.8138 7.55733 16.5459 7.86267C16.3962 8.03327 16.0527 8.73466 15.323 10.3596C14.7649 11.6024 14.3149 12.6262 14.3229 12.6349C14.331 12.6435 14.4692 12.5628 14.6302 12.4556C15.2579 12.0375 15.9967 11.8585 17.0936 11.8587C18.7817 11.859 20.5636 12.2482 22.6878 13.0809C25.042 14.0038 26.8176 15.0592 28.4572 16.5101C29.6218 17.5408 30.2434 18.4543 30.4345 19.4162C30.4867 19.6792 30.5457 19.8534 30.5683 19.8116C30.5906 19.7707 31.0461 18.7584 31.5808 17.5622C32.2377 16.0926 32.5654 15.2923 32.5915 15.0944C32.7234 14.0939 31.8944 12.7437 30.3914 11.5114C27.6584 9.27031 24.5851 7.85758 21.0553 7.21968C20.0745 7.04241 18.6719 7.0179 17.9823 7.1659ZM20.119 17.1699C16.4944 17.6172 13.7217 20.7525 13.7271 24.3976C13.7319 27.705 15.968 30.5101 19.2564 31.3344C19.8145 31.4742 19.9519 31.4862 21.0038 31.4856C22.0103 31.4851 22.2097 31.4692 22.6878 31.3519C24.8876 30.8119 26.6757 29.3863 27.5919 27.4419C28.0948 26.3747 28.2523 25.6492 28.253 24.3976C28.2535 23.3868 28.1962 22.9864 27.9332 22.1625C27.1517 19.7151 25.0005 17.7922 22.474 17.2827C21.7977 17.1463 20.7259 17.095 20.119 17.1699ZM82.626 20.8717C82.5475 20.8848 82.2906 20.9229 82.0551 20.9565C81.8197 20.99 81.5179 21.0438 81.3844 21.076L81.1418 21.1345V23.9562C81.1418 26.617 81.1361 26.7762 81.0419 26.7488C80.138 26.4857 79.4204 26.4112 78.1449 26.4479C77.054 26.4792 76.5566 26.5438 75.6617 26.7701C72.8925 27.4701 70.8136 29.3622 69.9544 31.9644C69.4639 33.4496 69.3187 35.5835 69.5856 37.3824C69.9482 39.826 71.0703 41.6816 72.9238 42.9026C74.4373 43.8998 76.2676 44.4039 78.6872 44.49C81.2324 44.5807 83.5961 44.0359 85.4399 42.9338C86.325 42.4047 86.808 41.8682 87.0274 41.1704C87.1317 40.839 87.1356 40.502 87.1356 31.8854C87.1356 26.1836 87.115 22.8368 87.0788 22.6475C86.9447 21.9482 86.5924 21.4499 86.0486 21.1908C85.5102 20.9342 85.1704 20.8816 83.9389 20.8643C83.2953 20.8553 82.7045 20.8586 82.626 20.8717ZM2.14355 22.1709C1.66353 22.2987 1.28763 22.5274 0.848599 22.9589C-0.0565245 23.8485 -0.238908 24.8797 0.307786 26.0172C0.800706 27.043 1.53635 27.9402 3.04062 29.3502C5.62659 31.7743 10.358 36.5762 11.03 37.4585C11.4007 37.9454 11.7966 38.7387 11.9686 39.3396C12.0925 39.7726 12.0973 39.8662 12.0818 41.5757C12.0572 44.2815 12.1637 45.1296 12.6261 45.9105C13.001 46.5436 13.8294 47.1018 14.6675 47.286C15.175 47.3976 27.3668 47.3965 27.8253 47.2849C28.6945 47.0733 29.4466 46.5092 29.8327 45.7795C30.2366 45.0162 30.2471 44.9292 30.2548 42.3054C30.2615 40.0684 30.2676 39.9403 30.3885 39.509C30.6507 38.5737 31.0824 37.7431 31.7814 36.8289C32.8039 35.4917 33.4403 34.8146 36.6694 31.6285C38.5116 29.8109 40.2211 28.0823 40.4684 27.7871C41.2235 26.886 41.7392 26.0035 41.8963 25.3441C42.2568 23.831 41.3562 22.4405 39.8536 22.1902C38.6641 21.992 36.9269 22.7144 35.0675 24.1804C34.7595 24.4232 33.9738 25.0851 33.3216 25.6512C31.3183 27.39 26.3846 31.2399 25.3937 31.8375C23.789 32.8053 21.1516 33.2657 19.3344 32.8952C17.7592 32.574 16.5983 31.9717 13.8897 30.0705C13.2736 29.638 12.4474 29.0603 12.0537 28.7866C11.101 28.1244 10.3908 27.5333 8.61659 25.9262C6.01002 23.5651 5.51379 23.1809 4.27821 22.567C3.31748 22.0896 2.80572 21.9947 2.14355 22.1709ZM54.2267 22.8171C53.5608 22.9494 52.8241 23.3832 52.4794 23.8461C52.3807 23.9785 52.224 24.2451 52.1313 24.4385C51.7898 25.1501 51.7958 24.9727 51.8152 33.6394C51.8312 40.8109 51.8416 41.5708 51.9275 41.846C52.19 42.6867 52.7302 43.3543 53.42 43.6906C54.1894 44.0657 54.1075 44.0616 60.3952 44.044L66.0431 44.0283L66.4027 43.864C66.9028 43.6355 67.2319 43.2632 67.3991 42.7367C67.5061 42.3996 67.5266 42.2087 67.5242 41.571C67.5212 40.732 67.4224 40.262 67.1023 39.5633L66.935 39.1983H62.3933H57.8515V37.3624V35.5264H61.3233C65.1604 35.5264 65.1523 35.5271 65.626 35.1695C65.9189 34.9485 66.0812 34.7208 66.2515 34.2925C66.362 34.0144 66.379 33.8629 66.382 33.1255C66.3859 32.1935 66.3002 31.7921 65.9513 31.108L65.7845 30.7812H61.8181H57.8515V29.1712V27.5612L61.5763 27.56C63.7431 27.5594 65.4656 27.5354 65.6946 27.5026C66.4108 27.4002 66.9629 26.9755 67.2234 26.3267C67.3375 26.0425 67.3517 25.9058 67.3537 25.0755C67.3562 24.0572 67.3097 23.8155 66.9768 23.1183L66.8054 22.7594L60.6303 22.7656C57.2339 22.769 54.3523 22.7922 54.2267 22.8171ZM114.336 22.8171C113.67 22.9494 112.934 23.3832 112.589 23.8461C112.49 23.9785 112.333 24.2451 112.241 24.4385C111.899 25.1514 111.905 24.9441 111.924 33.9499C111.939 41.6145 111.947 42.1865 112.041 42.4988C112.316 43.4097 112.799 43.8539 113.779 44.0973C114.543 44.2871 116.992 44.2015 117.934 43.9522L118.104 43.9072L118.118 40.1687L118.133 36.4303H121.374C124.988 36.4303 125.048 36.425 125.593 36.0562C126.131 35.6924 126.39 35.1183 126.445 34.1706C126.492 33.3478 126.269 32.3894 125.884 31.7556L125.772 31.572H121.894H118.017L118.032 29.609L118.047 27.6459L122.1 27.6176C126.103 27.5897 126.156 27.5879 126.419 27.4673C126.792 27.2971 127.181 26.9242 127.345 26.5806C127.561 26.1271 127.628 25.6702 127.591 24.8908C127.556 24.1318 127.463 23.7185 127.196 23.1407L127.02 22.7594L120.792 22.7656C117.367 22.769 114.462 22.7922 114.336 22.8171ZM156.949 26.4917C153.612 26.8476 150.876 28.2389 150.237 29.9055C150.134 30.1751 150.128 30.451 150.111 35.9219C150.1 39.5512 150.115 41.8133 150.151 42.0852C150.325 43.3872 150.967 43.9655 152.458 44.166C153.31 44.2806 154.439 44.2285 155.594 44.0215L156.093 43.9319V37.8436C156.093 33.0418 156.108 31.743 156.164 31.6969C156.278 31.6039 157.055 31.3137 157.492 31.2012C158.111 31.0416 159.146 31.0526 159.648 31.224C160.205 31.4145 160.573 31.7226 160.794 32.1851L160.974 32.5606L161.004 37.4471C161.038 42.8352 161.017 42.5343 161.403 43.1954C161.969 44.166 163.925 44.4829 166.499 44.0211L167 43.9312L166.98 37.8505C166.959 31.264 166.975 31.6114 166.649 30.661C166.03 28.8505 164.445 27.4721 162.277 26.858C161.218 26.558 160.52 26.4747 158.919 26.4566C158.102 26.4474 157.216 26.4632 156.949 26.4917ZM92.0448 26.7938C91.778 26.8344 91.4107 26.8986 91.2288 26.9365L90.8981 27.0053L90.9176 32.664C90.9386 38.7342 90.9361 38.6784 91.2366 39.7068C91.7085 41.3212 92.8887 42.6967 94.4747 43.4811C95.259 43.8689 96.5896 44.2376 97.8103 44.4053C98.6091 44.5151 100.961 44.4976 101.863 44.3753C104.704 43.9903 106.846 42.9898 107.48 41.7525C107.811 41.1065 107.8 41.3361 107.8 34.8471C107.8 30.8062 107.78 28.7731 107.738 28.546C107.657 28.1061 107.387 27.5508 107.163 27.3646C106.915 27.1581 106.516 26.9665 106.083 26.8456C105.779 26.7606 105.498 26.7431 104.432 26.7427C103.214 26.7421 102.84 26.7745 102.077 26.9464L101.806 27.0075V33.2188V39.4301L101.597 39.5167C100.834 39.832 99.4824 39.9365 98.7277 39.7383C98.0277 39.5545 97.4881 39.1722 97.2346 38.6804C96.9306 38.0908 96.9352 38.1665 96.8992 33.1255C96.8631 28.0661 96.8814 28.3618 96.5653 27.7534C96.3501 27.3392 95.9154 27.05 95.213 26.8537C94.7536 26.7253 92.7443 26.6873 92.0448 26.7938ZM130.691 26.7938C130.424 26.8344 130.057 26.8986 129.875 26.9365L129.544 27.0053L129.563 32.664C129.584 38.7342 129.582 38.6784 129.883 39.7068C130.354 41.3212 131.535 42.6967 133.121 43.4811C133.905 43.8689 135.235 44.2376 136.456 44.4053C137.255 44.5151 139.606 44.4976 140.509 44.3753C143.35 43.9903 145.492 42.9898 146.126 41.7525C146.456 41.1065 146.446 41.3361 146.446 34.8471C146.446 30.8062 146.426 28.7731 146.384 28.546C146.303 28.1061 146.033 27.5508 145.809 27.3646C145.561 27.1581 145.162 26.9665 144.729 26.8456C144.425 26.7606 144.144 26.7431 143.078 26.7427C141.86 26.7421 141.485 26.7745 140.723 26.9464L140.452 27.0075V33.2188V39.4301L140.243 39.5167C139.48 39.832 138.128 39.9365 137.374 39.7383C136.674 39.5545 136.134 39.1722 135.88 38.6804C135.577 38.0908 135.581 38.1665 135.545 33.1255C135.509 28.0661 135.527 28.3618 135.211 27.7534C134.996 27.3392 134.561 27.05 133.859 26.8537C133.4 26.7253 131.39 26.6873 130.691 26.7938ZM80.4638 31.2031C80.6404 31.2505 80.878 31.3279 80.9918 31.375L81.1989 31.4606V35.4102V39.3597L80.8944 39.4724C80.1543 39.7465 79.9297 39.7883 79.2009 39.7877C78.7045 39.7872 78.3757 39.7572 78.1205 39.689C76.8437 39.3479 76.0629 38.5215 75.7065 37.1342C75.5911 36.6847 75.5771 36.4983 75.5811 35.4699C75.585 34.4656 75.6021 34.2519 75.7099 33.8599C76.1385 32.3012 77.0378 31.4396 78.5445 31.1443C79.0291 31.0493 80.0023 31.0791 80.4638 31.2031Z" fill="#132C3A"/>
</svg>
